<svg width="14" height="18" viewBox="0 0 14 18" fill="none" xmlns="http://www.w3.org/2000/svg">
<path d="M12 1H10C9.44772 1 9 1.44772 9 2V16C9 16.5523 9.44772 17 10 17H12C12.5523 17 13 16.5523 13 16V2C13 1.44772 12.5523 1 12 1Z" stroke="white" stroke-width="2" stroke-linecap="round" stroke-linejoin="round"/>
<path d="M4 1H2C1.44772 1 1 1.44772 1 2V16C1 16.5523 1.44772 17 2 17H4C4.55228 17 5 16.5523 5 16V2C5 1.44772 4.55228 1 4 1Z" stroke="white" stroke-width="2" stroke-linecap="round" stroke-linejoin="round"/>
</svg>
